<svg width="33" height="33" viewBox="0 0 33 33" fill="none" xmlns="http://www.w3.org/2000/svg">
    <path fill-rule="evenodd" clip-rule="evenodd" d="M24.75 5.5H26.125C27.6375 5.5 28.875 6.7375 28.875 8.25V27.5C28.875 29.0125 27.6375 30.25 26.125 30.25H6.875C5.34875 30.25 4.125 29.0125 4.125 27.5V8.25C4.125 6.7375 5.34875 5.5 6.875 5.5H8.25V4.125C8.25 3.36875 8.86875 2.75 9.625 2.75C10.3812 2.75 11 3.36875 11 4.125V5.5H22V4.125C22 3.36875 22.6187 2.75 23.375 2.75C24.1313 2.75 24.75 3.36875 24.75 4.125V5.5ZM11 15.125H22C22.7563 15.125 23.375 15.7437 23.375 16.5C23.375 17.2563 22.7563 17.875 22 17.875H11C10.2438 17.875 9.625 17.2563 9.625 16.5C9.625 15.7437 10.2438 15.125 11 15.125ZM24.75 27.5H8.25C7.49375 27.5 6.875 26.8813 6.875 26.125V12.375H26.125V26.125C26.125 26.8813 25.5063 27.5 24.75 27.5ZM11 20.625H17.875C18.6313 20.625 19.25 21.2437 19.25 22C19.25 22.7563 18.6313 23.375 17.875 23.375H11C10.2438 23.375 9.625 22.7563 9.625 22C9.625 21.2437 10.2438 20.625 11 20.625Z" fill="black" fill-opacity="0.54"/>
</svg>
