<svg width="25" height="25" viewBox="0 0 25 25" fill="none" xmlns="http://www.w3.org/2000/svg">
    <path fill-rule="evenodd" clip-rule="evenodd" d="M16.8732 15.8983H17.9595L23.8032 21.7558C24.367 22.3196 24.367 23.2271 23.8032 23.7908L23.7895 23.8046C23.2257 24.3683 22.3182 24.3683 21.7545 23.8046L15.897 17.9608V16.8746L15.5257 16.4896C13.6007 18.1396 10.9745 18.9921 8.1832 18.5246C4.3607 17.8783 1.3082 14.6883 0.840703 10.8383C0.139453 5.02207 5.0207 0.127071 10.837 0.842071C14.687 1.30957 17.877 4.36207 18.5232 8.18457C18.9907 10.9758 18.1382 13.6021 16.4882 15.5271L16.8732 15.8983ZM3.52195 9.71082C3.52195 13.1346 6.2857 15.8983 9.70945 15.8983C13.1332 15.8983 15.897 13.1346 15.897 9.71082C15.897 6.28707 13.1332 3.52332 9.70945 3.52332C6.2857 3.52332 3.52195 6.28707 3.52195 9.71082Z" fill="black" fill-opacity="0.54"/>
</svg>